<svg xmlns="http://www.w3.org/2000/svg" xmlns:xlink="http://www.w3.org/1999/xlink" width="1200" height="630" viewBox="0 0 1200 630">
 <defs>
  <linearGradient id="bg" x2="1" y2="1"><stop stop-color="#07101e"/><stop offset="1" stop-color="#0d203c"/></linearGradient>
  <radialGradient id="glow"><stop stop-color="#2563eb" stop-opacity=".22"/><stop offset="1" stop-color="#2563eb" stop-opacity="0"/></radialGradient>
  <marker id="arrow" markerWidth="10" markerHeight="10" refX="8" refY="5" orient="auto"><path d="M1 1L8 5 1 9" fill="none" stroke="#60a5fa" stroke-width="1.5"/></marker>
 </defs>
 <rect width="1200" height="630" fill="url(#bg)"/>
 <ellipse cx="927" cy="353" rx="292" ry="260" fill="url(#glow)"/>
 <text x="48" y="61" fill="#fff" font-family="Helvetica Neue,Helvetica,Arial,sans-serif" font-size="20" font-weight="700" letter-spacing="5.2">THE STANDARD<tspan fill="#60a5fa">.</tspan></text>
 <rect x="48" y="90" width="152" height="31" rx="15.5" fill="#2563eb"/>
 <text x="69" y="111" fill="#fff" font-family="Helvetica Neue,Helvetica,Arial,sans-serif" font-size="12" font-weight="700" letter-spacing="2.6">EDITION 005</text>
 <g fill="#fff" font-family="Helvetica Neue,Helvetica,Arial,sans-serif" font-weight="800" font-size="69" letter-spacing="-2.8">
  <text x="46" y="250">WHO MADE IT</text><text x="46" y="329" fill="#77b7ff">POSSIBLE?</text>
 </g>
 <path d="M48 374h66" stroke="#60a5fa" stroke-width="5"/>
 <text x="48" y="428" fill="#fff" font-family="Helvetica Neue,Helvetica,Arial,sans-serif" font-size="27" font-weight="700" letter-spacing=".5">REWARD THE ASSIST</text>
 <text x="48" y="564" fill="#bed1e8" font-family="Helvetica Neue,Helvetica,Arial,sans-serif" font-size="13" font-weight="600" letter-spacing="2.2">OCTOBER 2026 · ESSAY + AUDIO</text>
 <!-- A symbolic court diagram: the path connects the contribution to the finish. -->
 <g fill="none" stroke="#86a2c5" stroke-opacity=".22" stroke-width="2">
  <path d="M694 173H1152V515H694Z"/><path d="M804 173V266H1042V173"/>
  <path d="M804 266A119 119 0 0 0 1042 266"/><path d="M716 173V211A207 207 0 0 0 1130 211V173"/>
 </g>
 <path d="M877 195H969" stroke="#edf4ff" stroke-width="5"/>
 <ellipse cx="923" cy="215" rx="20" ry="9" fill="none" stroke="#edf4ff" stroke-width="4"/>
 <path d="M755 423C790 298 897 380 1008 305" fill="none" stroke="#60a5fa" stroke-width="5" stroke-dasharray="11 10" marker-end="url(#arrow)"/>
 <circle cx="755" cy="438" r="46" fill="#2563eb" stroke="#90c3ff" stroke-width="2"/>
 <g fill="none" stroke="#dbeafe" stroke-width="2.3">
  <circle cx="755" cy="438" r="23"/><path d="M732 438h46M755 415v46M739 421c17 8 17 26 0 34M771 421c-17 8-17 26 0 34"/>
 </g>
 <circle cx="1041" cy="281" r="31" fill="#edf4ff"/>
 <path d="M1030 281l8 8 16-17" fill="none" stroke="#0d203c" stroke-width="4" stroke-linecap="round" stroke-linejoin="round"/>
 <rect x="926" y="27" width="230" height="57" rx="7" fill="#fff" fill-opacity=".96"/>
 <image xlink:href="avc-logo-horizontal-light.svg" x="940" y="36" width="204" height="38.4"/>
 <rect y="624" width="1200" height="6" fill="#2563eb"/>
</svg>
